<svg xmlns="http://www.w3.org/2000/svg" width="40" height="40" viewBox="124 5 40 40" fill="none">
    <g filter="url(#filter0_f)">
        <path d="M159.513 37.6331C160.013 37.0196 159.562 36.1398 158.77 36.1268C148.664 35.9604 140.212 36.1472 129.758 36.7832C128.967 36.8314 128.555 37.7311 129.083 38.3217C132.746 42.4201 138.074 45 144.004 45C150.26 45 155.845 42.1291 159.513 37.6331Z" stroke="#4C4CFF" stroke-linecap="round" stroke-linejoin="round"></path>
        <path d="M126.643 15.0579C126.252 15.7378 126.827 16.5294 127.606 16.436C139.173 15.048 147.698 14.6341 159.788 15.3703C160.575 15.4182 161.104 14.5873 160.668 13.9313C157.083 8.54757 150.958 5 144.004 5C136.576 5 130.093 9.04797 126.643 15.0579Z" stroke="#4C4CFF" stroke-linecap="round" stroke-linejoin="round"></path>
    </g>
    <g filter="url(#filter1_f)">
        <path d="M159.513 37.6331C160.013 37.0196 159.562 36.1398 158.77 36.1268C148.664 35.9604 140.212 36.1472 129.758 36.7832C128.967 36.8314 128.555 37.7311 129.083 38.3217C132.746 42.4201 138.074 45 144.004 45C150.26 45 155.845 42.1291 159.513 37.6331Z" stroke="#4C4CFF" stroke-linecap="round" stroke-linejoin="round"></path>
        <path d="M126.643 15.0579C126.252 15.7378 126.827 16.5294 127.606 16.436C139.173 15.048 147.698 14.6341 159.788 15.3703C160.575 15.4182 161.104 14.5873 160.668 13.9313C157.083 8.54757 150.958 5 144.004 5C136.576 5 130.093 9.04797 126.643 15.0579Z" stroke="#4C4CFF" stroke-linecap="round" stroke-linejoin="round"></path>
    </g>
    <path d="M159.513 37.6331C160.013 37.0196 159.562 36.1398 158.77 36.1268C148.664 35.9604 140.212 36.1472 129.758 36.7832C128.967 36.8314 128.555 37.7311 129.083 38.3217C132.746 42.4201 138.074 45 144.004 45C150.26 45 155.845 42.1291 159.513 37.6331Z" stroke="#4C4CFF" stroke-linecap="round" stroke-linejoin="round"></path>
    <path d="M126.643 15.0579C126.252 15.7378 126.827 16.5294 127.606 16.436C139.173 15.048 147.698 14.6341 159.788 15.3703C160.575 15.4182 161.104 14.5873 160.668 13.9313C157.083 8.54757 150.958 5 144.004 5C136.576 5 130.093 9.04797 126.643 15.0579Z" stroke="#4C4CFF" stroke-linecap="round" stroke-linejoin="round"></path>
    <path d="M159.513 37.6331C160.013 37.0196 159.562 36.1398 158.77 36.1268C148.664 35.9604 140.212 36.1472 129.758 36.7832C128.967 36.8314 128.555 37.7311 129.083 38.3217C132.746 42.4201 138.074 45 144.004 45C150.26 45 155.845 42.1291 159.513 37.6331Z" stroke="white" stroke-width="0.5" stroke-linecap="round" stroke-linejoin="round"></path>
    <path d="M126.643 15.0579C126.252 15.7378 126.827 16.5294 127.606 16.436C139.173 15.048 147.698 14.6341 159.788 15.3703C160.575 15.4182 161.104 14.5873 160.668 13.9313C157.083 8.54757 150.958 5 144.004 5C136.576 5 130.093 9.04797 126.643 15.0579Z" stroke="white" stroke-width="0.5" stroke-linecap="round" stroke-linejoin="round"></path>
    <g filter="url(#filter2_f)">
        <path d="M163.859 27.4656C163.988 26.4133 163.172 25.5115 162.115 25.4264C149.235 24.3883 139.184 24.2251 125.89 24.9245C124.831 24.9802 123.99 25.8596 124.089 26.9156C124.23 28.4145 124.537 29.8654 124.991 31.2496C125.253 32.0473 126.032 32.5408 126.871 32.5118C139.383 32.0783 149.06 32.0468 161.196 32.3747C162.035 32.3973 162.811 31.8976 163.066 31.0975C163.439 29.9298 163.707 28.7155 163.859 27.4656Z" stroke="#E33CD5" stroke-linecap="round" stroke-linejoin="round"></path>
    </g>
    <g filter="url(#filter3_f)">
        <path d="M163.859 27.4656C163.988 26.4133 163.172 25.5115 162.115 25.4264C149.235 24.3883 139.184 24.2251 125.89 24.9245C124.831 24.9802 123.99 25.8596 124.089 26.9156C124.23 28.4145 124.537 29.8654 124.991 31.2496C125.253 32.0473 126.032 32.5408 126.871 32.5118C139.383 32.0783 149.06 32.0468 161.196 32.3747C162.035 32.3973 162.811 31.8976 163.066 31.0975C163.439 29.9298 163.707 28.7155 163.859 27.4656Z" stroke="#E33CD5" stroke-linecap="round" stroke-linejoin="round"></path>
    </g>
    <path d="M163.859 27.4656C163.988 26.4133 163.172 25.5115 162.115 25.4264C149.235 24.3883 139.184 24.2251 125.89 24.9245C124.831 24.9802 123.99 25.8596 124.089 26.9156C124.23 28.4145 124.537 29.8654 124.991 31.2496C125.253 32.0473 126.032 32.5408 126.871 32.5118C139.383 32.0783 149.06 32.0468 161.196 32.3747C162.035 32.3973 162.811 31.8976 163.066 31.0975C163.439 29.9298 163.707 28.7155 163.859 27.4656Z" stroke="#E33CD5" stroke-linecap="round" stroke-linejoin="round"></path>
    <g filter="url(#filter4_f)">
        <path d="M124 20.5C126.667 18.5 129.333 18.5 132 20.5C134.667 22.5 137.333 22.5 140 20.5C142.667 18.5 145.333 18.5 148 20.5C150.667 22.5 153.333 22.5 156 20.5C158.667 18.5 161.333 18.5 164 20.5" stroke="#00CCCC" stroke-linecap="round" stroke-linejoin="round"></path>
    </g>
    <g filter="url(#filter5_f)">
        <path d="M124 20.5C126.667 18.5 129.333 18.5 132 20.5C134.667 22.5 137.333 22.5 140 20.5C142.667 18.5 145.333 18.5 148 20.5C150.667 22.5 153.333 22.5 156 20.5C158.667 18.5 161.333 18.5 164 20.5" stroke="#00CCCC" stroke-linecap="round" stroke-linejoin="round"></path>
    </g>
    <path d="M124 20.5C126.667 18.5 129.333 18.5 132 20.5C134.667 22.5 137.333 22.5 140 20.5C142.667 18.5 145.333 18.5 148 20.5C150.667 22.5 153.333 22.5 156 20.5C158.667 18.5 161.333 18.5 164 20.5" stroke="#00CCCC" stroke-linecap="round" stroke-linejoin="round"></path>
    <path d="M124 20.5C126.667 18.5 129.333 18.5 132 20.5C134.667 22.5 137.333 22.5 140 20.5C142.667 18.5 145.333 18.5 148 20.5C150.667 22.5 153.333 22.5 156 20.5C158.667 18.5 161.333 18.5 164 20.5" stroke="white" stroke-width="0.5" stroke-linecap="round" stroke-linejoin="round"></path>
    <g filter="url(#filter6_f)">
        <ellipse rx="1" ry="0.75" transform="matrix(0.885492 0.464655 0.464655 -0.885492 137.234 39.9812)" stroke="#4C4CFF"></ellipse>
        <ellipse cx="152.708" cy="11.3542" rx="1.5" ry="1" transform="rotate(15 152.708 11.3542)" stroke="#4C4CFF"></ellipse>
        <ellipse rx="1" ry="0.75" transform="matrix(0.965926 -0.258819 -0.258819 -0.965926 150.16 39.9833)" stroke="#4C4CFF"></ellipse>
        <ellipse cx="142.5" cy="12" rx="1.5" ry="1" transform="rotate(180 142.5 12)" stroke="#4C4CFF"></ellipse>
        <ellipse cx="146.708" cy="8.35415" rx="1.5" ry="1" transform="rotate(15 146.708 8.35415)" stroke="#4C4CFF"></ellipse>
        <ellipse rx="1" ry="0.75" transform="matrix(1 0 0 -1 144 41.75)" stroke="#4C4CFF"></ellipse>
        <ellipse cx="135.793" cy="10.5826" rx="1.5" ry="1" transform="rotate(-27.6879 135.793 10.5826)" stroke="#4C4CFF"></ellipse>
    </g>
    <g filter="url(#filter7_f)">
        <ellipse rx="1" ry="0.75" transform="matrix(0.885492 0.464655 0.464655 -0.885492 137.234 39.9812)" stroke="#4C4CFF"></ellipse>
        <ellipse cx="152.708" cy="11.3542" rx="1.5" ry="1" transform="rotate(15 152.708 11.3542)" stroke="#4C4CFF"></ellipse>
        <ellipse rx="1" ry="0.75" transform="matrix(0.965926 -0.258819 -0.258819 -0.965926 150.16 39.9833)" stroke="#4C4CFF"></ellipse>
        <ellipse cx="142.5" cy="12" rx="1.5" ry="1" transform="rotate(180 142.5 12)" stroke="#4C4CFF"></ellipse>
        <ellipse cx="146.708" cy="8.35415" rx="1.5" ry="1" transform="rotate(15 146.708 8.35415)" stroke="#4C4CFF"></ellipse>
        <ellipse rx="1" ry="0.75" transform="matrix(1 0 0 -1 144 41.75)" stroke="#4C4CFF"></ellipse>
        <ellipse cx="135.793" cy="10.5826" rx="1.5" ry="1" transform="rotate(-27.6879 135.793 10.5826)" stroke="#4C4CFF"></ellipse>
    </g>
    <ellipse rx="1" ry="0.75" transform="matrix(0.885492 0.464655 0.464655 -0.885492 137.234 39.9812)" stroke="#4C4CFF"></ellipse>
    <ellipse cx="152.708" cy="11.3542" rx="1.5" ry="1" transform="rotate(15 152.708 11.3542)" stroke="#4C4CFF"></ellipse>
    <ellipse rx="1" ry="0.75" transform="matrix(0.965926 -0.258819 -0.258819 -0.965926 150.16 39.9833)" stroke="#4C4CFF"></ellipse>
    <ellipse cx="142.5" cy="12" rx="1.5" ry="1" transform="rotate(180 142.5 12)" stroke="#4C4CFF"></ellipse>
    <ellipse cx="146.708" cy="8.35415" rx="1.5" ry="1" transform="rotate(15 146.708 8.35415)" stroke="#4C4CFF"></ellipse>
    <ellipse rx="1" ry="0.75" transform="matrix(1 0 0 -1 144 41.75)" stroke="#4C4CFF"></ellipse>
    <ellipse cx="135.793" cy="10.5826" rx="1.5" ry="1" transform="rotate(-27.6879 135.793 10.5826)" stroke="#4C4CFF"></ellipse>
    <ellipse rx="1" ry="0.75" transform="matrix(0.885492 0.464655 0.464655 -0.885492 137.234 39.9812)" stroke="white" stroke-width="0.5"></ellipse>
    <ellipse cx="152.708" cy="11.3542" rx="1.5" ry="1" transform="rotate(15 152.708 11.3542)" stroke="white" stroke-width="0.5"></ellipse>
    <ellipse rx="1" ry="0.75" transform="matrix(0.965926 -0.258819 -0.258819 -0.965926 150.16 39.9833)" stroke="white" stroke-width="0.5"></ellipse>
    <ellipse cx="142.5" cy="12" rx="1.5" ry="1" transform="rotate(180 142.5 12)" stroke="white" stroke-width="0.5"></ellipse>
    <ellipse cx="146.708" cy="8.35415" rx="1.5" ry="1" transform="rotate(15 146.708 8.35415)" stroke="white" stroke-width="0.5"></ellipse>
    <ellipse rx="1" ry="0.75" transform="matrix(1 0 0 -1 144 41.75)" stroke="white" stroke-width="0.5"></ellipse>
    <ellipse cx="135.793" cy="10.5826" rx="1.5" ry="1" transform="rotate(-27.6879 135.793 10.5826)" stroke="white" stroke-width="0.5"></ellipse>

</svg>
